<svg width="140" height="50" viewBox="0 0 140 50" fill="none" xmlns="http://www.w3.org/2000/svg">
<rect x="0.5" y="0.5" width="139" height="49" rx="6.5" fill="black"/>
<path d="M93.1785 24.121V26.6411H91.5988V28.2938H93.1785V33.9093C93.1785 35.8268 94.0459 36.5938 96.2282 36.5938C96.6117 36.5938 96.9769 36.5481 97.2965 36.4933V34.8589C97.0226 34.8863 96.8491 34.9046 96.5478 34.9046C95.5708 34.9046 95.1416 34.448 95.1416 33.4071V28.2938H97.2965V26.6411H95.1416V24.121H93.1785Z" fill="white"/>
<path d="M102.856 36.7307C105.759 36.7307 107.54 34.7859 107.54 31.5627C107.54 28.3577 105.75 26.4037 102.856 26.4037C99.9521 26.4037 98.1625 28.3577 98.1625 31.5627C98.1625 34.7859 99.943 36.7307 102.856 36.7307ZM102.856 34.9867C101.148 34.9867 100.19 33.7358 100.19 31.5627C100.19 29.4078 101.148 28.1477 102.856 28.1477C104.554 28.1477 105.522 29.4078 105.522 31.5627C105.522 33.7267 104.554 34.9867 102.856 34.9867Z" fill="white"/>
<path d="M109.063 36.539H111.026V30.6678C111.026 29.2708 112.076 28.3303 113.565 28.3303C113.912 28.3303 114.496 28.3943 114.66 28.449V26.5133C114.45 26.4585 114.076 26.4311 113.784 26.4311C112.487 26.4311 111.382 27.1433 111.099 28.1203H110.953V26.5955H109.063V36.539Z" fill="white"/>
<path d="M119.535 28.0747C120.987 28.0747 121.936 29.0882 121.982 30.6496H116.96C117.07 29.0973 118.083 28.0747 119.535 28.0747ZM121.973 33.8545C121.608 34.6306 120.795 35.0598 119.608 35.0598C118.037 35.0598 117.024 33.955 116.96 32.211V32.1014H123.982V31.4166C123.982 28.2938 122.311 26.4037 119.544 26.4037C116.741 26.4037 114.96 28.4217 114.96 31.5992C114.96 34.7767 116.704 36.7307 119.553 36.7307C121.827 36.7307 123.415 35.635 123.863 33.8545H121.973Z" fill="white"/>
<path d="M80.3045 32.867C80.456 35.3087 82.4907 36.8702 85.5191 36.8702C88.7558 36.8702 90.781 35.233 90.781 32.6209C90.781 30.5673 89.6264 29.4316 86.8251 28.7786L85.3204 28.4095C83.5412 27.9931 82.8219 27.4347 82.8219 26.46C82.8219 25.2297 83.9387 24.4252 85.6138 24.4252C87.2037 24.4252 88.3015 25.2107 88.5002 26.4694H90.5634C90.4403 24.1697 88.4151 22.5514 85.6422 22.5514C82.661 22.5514 80.6736 24.1697 80.6736 26.6019C80.6736 28.6083 81.7998 29.8007 84.2699 30.378L86.0302 30.8039C87.8378 31.2298 88.6327 31.8544 88.6327 32.8954C88.6327 34.1068 87.3835 34.9869 85.68 34.9869C83.8535 34.9869 82.5853 34.1636 82.4055 32.867H80.3045Z" fill="white"/>
<path d="M59.9685 26.4311C58.6171 26.4311 57.4483 27.1068 56.8457 28.239H56.6996V26.5955H54.8095V39.8444H56.7727V35.0324H56.9279C57.4483 36.0824 58.5714 36.7033 59.9867 36.7033C62.4977 36.7033 64.0956 34.7219 64.0956 31.5627C64.0956 28.4034 62.4977 26.4311 59.9685 26.4311ZM59.4115 34.9411C57.7679 34.9411 56.7361 33.6445 56.7361 31.5718C56.7361 29.49 57.7679 28.1934 59.4206 28.1934C61.0824 28.1934 62.0777 29.4626 62.0777 31.5627C62.0777 33.6719 61.0824 34.9411 59.4115 34.9411Z" fill="white"/>
<path d="M70.9649 26.4311C69.6136 26.4311 68.4448 27.1068 67.8422 28.239H67.6961V26.5955H65.806V39.8444H67.7691V35.0324H67.9244C68.4448 36.0824 69.5679 36.7033 70.9832 36.7033C73.4942 36.7033 75.0921 34.7219 75.0921 31.5627C75.0921 28.4034 73.4942 26.4311 70.9649 26.4311ZM70.408 34.9411C68.7644 34.9411 67.7326 33.6445 67.7326 31.5718C67.7326 29.49 68.7644 28.1934 70.4171 28.1934C72.0789 28.1934 73.0742 29.4626 73.0742 31.5627C73.0742 33.6719 72.0789 34.9411 70.408 34.9411Z" fill="white"/>
<path d="M51.2873 36.539H53.5397L48.6091 22.8826H46.3283L41.3976 36.539H43.5743L44.833 32.9143H50.0381L51.2873 36.539ZM47.3598 25.3622H47.5207L49.4987 31.1351H45.3724L47.3598 25.3622Z" fill="white"/>
<path d="M42.7162 12.5821V19.17H45.0948C47.058 19.17 48.1948 17.9602 48.1948 15.8555C48.1948 13.7828 47.0488 12.5821 45.0948 12.5821H42.7162ZM43.7389 13.5134H44.9807C46.3458 13.5134 47.1538 14.3809 47.1538 15.8692C47.1538 17.3803 46.3595 18.2386 44.9807 18.2386H43.7389V13.5134Z" fill="white"/>
<path d="M51.6764 19.2659C53.1282 19.2659 54.0184 18.2934 54.0184 16.6818C54.0184 15.0794 53.1236 14.1024 51.6764 14.1024C50.2246 14.1024 49.3297 15.0794 49.3297 16.6818C49.3297 18.2934 50.22 19.2659 51.6764 19.2659ZM51.6764 18.3939C50.8226 18.3939 50.3433 17.7684 50.3433 16.6818C50.3433 15.6044 50.8226 14.9744 51.6764 14.9744C52.5255 14.9744 53.0095 15.6044 53.0095 16.6818C53.0095 17.7638 52.5255 18.3939 51.6764 18.3939Z" fill="white"/>
<path d="M61.5998 14.1982H60.6182L59.7325 17.9921H59.6549L58.6322 14.1982H57.6918L56.6691 17.9921H56.5961L55.7058 14.1982H54.7105L56.0802 19.17H57.0891L58.1118 15.5085H58.1894L59.2166 19.17H60.2347L61.5998 14.1982Z" fill="white"/>
<path d="M62.7302 19.17H63.7117V16.2618C63.7117 15.4857 64.1729 15.0018 64.8988 15.0018C65.6247 15.0018 65.9716 15.3989 65.9716 16.1979V19.17H66.9532V15.9514C66.9532 14.7689 66.3414 14.1024 65.232 14.1024C64.4833 14.1024 63.9902 14.4356 63.7483 14.9881H63.6752V14.1982H62.7302V19.17Z" fill="white"/>
<path d="M68.4991 19.17H69.4806V12.2579H68.4991V19.17Z" fill="white"/>
<path d="M73.1722 19.2659C74.624 19.2659 75.5143 18.2934 75.5143 16.6818C75.5143 15.0794 74.6195 14.1024 73.1722 14.1024C71.7204 14.1024 70.8256 15.0794 70.8256 16.6818C70.8256 18.2934 71.7159 19.2659 73.1722 19.2659ZM73.1722 18.3939C72.3185 18.3939 71.8391 17.7684 71.8391 16.6818C71.8391 15.6044 72.3185 14.9744 73.1722 14.9744C74.0214 14.9744 74.5053 15.6044 74.5053 16.6818C74.5053 17.7638 74.0214 18.3939 73.1722 18.3939Z" fill="white"/>
<path d="M78.4389 18.4258C77.9048 18.4258 77.5167 18.1656 77.5167 17.7182C77.5167 17.2799 77.8271 17.0471 78.512 17.0014L79.7264 16.9238V17.3393C79.7264 17.9556 79.1785 18.4258 78.4389 18.4258ZM78.1878 19.2522C78.8407 19.2522 79.384 18.9691 79.6807 18.4715H79.7583V19.17H80.7034V15.7733C80.7034 14.7233 80.0003 14.1024 78.7539 14.1024C77.6263 14.1024 76.8228 14.6502 76.7223 15.504H77.6719C77.7815 15.1524 78.1604 14.9515 78.7083 14.9515C79.3794 14.9515 79.7264 15.2483 79.7264 15.7733V16.2025L78.3796 16.2801C77.1971 16.3531 76.5306 16.869 76.5306 17.7638C76.5306 18.6724 77.2291 19.2522 78.1878 19.2522Z" fill="white"/>
<path d="M84.0343 19.2522C84.7191 19.2522 85.2989 18.928 85.5957 18.3847H85.6733V19.17H86.6138V12.2579H85.6322V14.9881H85.5592C85.2898 14.4402 84.7146 14.1161 84.0343 14.1161C82.7788 14.1161 81.9707 15.1113 81.9707 16.6818C81.9707 18.2569 82.7697 19.2522 84.0343 19.2522ZM84.3128 14.9972C85.1346 14.9972 85.6505 15.65 85.6505 16.6864C85.6505 17.7273 85.1391 18.371 84.3128 18.371C83.4819 18.371 82.9843 17.7364 82.9843 16.6818C82.9843 15.6364 83.4865 14.9972 84.3128 14.9972Z" fill="white"/>
<path d="M92.9789 19.2659C94.4307 19.2659 95.321 18.2934 95.321 16.6818C95.321 15.0794 94.4261 14.1024 92.9789 14.1024C91.5271 14.1024 90.6323 15.0794 90.6323 16.6818C90.6323 18.2934 91.5225 19.2659 92.9789 19.2659ZM92.9789 18.3939C92.1252 18.3939 91.6458 17.7684 91.6458 16.6818C91.6458 15.6044 92.1252 14.9744 92.9789 14.9744C93.8281 14.9744 94.312 15.6044 94.312 16.6818C94.312 17.7638 93.8281 18.3939 92.9789 18.3939Z" fill="white"/>
<path d="M96.6203 19.17H97.6018V16.2618C97.6018 15.4857 98.063 15.0018 98.7889 15.0018C99.5148 15.0018 99.8617 15.3989 99.8617 16.1979V19.17H100.843V15.9514C100.843 14.7689 100.232 14.1024 99.1221 14.1024C98.3734 14.1024 97.8803 14.4356 97.6384 14.9881H97.5653V14.1982H96.6203V19.17Z" fill="white"/>
<path d="M105.364 12.961V14.2211H104.574V15.0474H105.364V17.8552C105.364 18.8139 105.798 19.1974 106.889 19.1974C107.081 19.1974 107.263 19.1746 107.423 19.1472V18.33C107.286 18.3437 107.199 18.3528 107.049 18.3528C106.56 18.3528 106.346 18.1245 106.346 17.6041V15.0474H107.423V14.2211H106.346V12.961H105.364Z" fill="white"/>
<path d="M108.741 19.17H109.722V16.2664C109.722 15.5131 110.17 15.0063 110.973 15.0063C111.667 15.0063 112.037 15.4081 112.037 16.2025V19.17H113.018V15.9605C113.018 14.7781 112.366 14.1069 111.306 14.1069C110.558 14.1069 110.033 14.4402 109.791 14.9972H109.713V12.2579H108.741V19.17Z" fill="white"/>
<path d="M116.559 14.9378C117.285 14.9378 117.76 15.4446 117.783 16.2253H115.272C115.327 15.4492 115.833 14.9378 116.559 14.9378ZM117.778 17.8278C117.596 18.2158 117.189 18.4304 116.596 18.4304C115.811 18.4304 115.304 17.878 115.272 17.006V16.9512H118.783V16.6088C118.783 15.0474 117.947 14.1024 116.564 14.1024C115.162 14.1024 114.272 15.1113 114.272 16.7001C114.272 18.2889 115.144 19.2659 116.568 19.2659C117.705 19.2659 118.5 18.718 118.723 17.8278H117.778Z" fill="white"/>
<path d="M30.7459 25.3309C30.7697 23.4818 31.7628 21.7322 33.3381 20.7637C32.3443 19.3443 30.6797 18.4444 28.9479 18.3902C27.1007 18.1963 25.3099 19.4955 24.3687 19.4955C23.4092 19.4955 21.9599 18.4095 20.3993 18.4416C18.3651 18.5073 16.4688 19.6638 15.4791 21.4422C13.3517 25.1255 14.9386 30.5386 16.9764 33.5159C17.996 34.9738 19.1876 36.6023 20.7468 36.5445C22.2726 36.4813 22.8424 35.5716 24.6842 35.5716C26.5088 35.5716 27.0434 36.5445 28.6343 36.5078C30.2715 36.4813 31.303 35.0435 32.2868 33.5718C33.0194 32.533 33.5831 31.3849 33.9571 30.17C32.033 29.3562 30.7482 27.42 30.7459 25.3309Z" fill="white"/>
<path d="M27.7411 16.4322C28.6338 15.3606 29.0736 13.9832 28.9671 12.5925C27.6032 12.7358 26.3435 13.3876 25.4387 14.4181C24.554 15.425 24.0936 16.7781 24.1806 18.1156C25.5449 18.1297 26.8862 17.4955 27.7411 16.4322Z" fill="white"/>
<rect x="0.5" y="0.5" width="139" height="49" rx="6.5" stroke="#1D1C23"/>
</svg>
