<svg width="24" height="25" viewBox="0 0 24 25" fill="none" xmlns="http://www.w3.org/2000/svg">
<path d="M0 12.5C0 5.87258 5.37258 0.5 12 0.5C18.6274 0.5 24 5.87258 24 12.5C24 19.1274 18.6274 24.5 12 24.5C5.37258 24.5 0 19.1274 0 12.5Z" fill="#F7BB0E"/>
<path fill-rule="evenodd" clip-rule="evenodd" d="M17.0964 7.89004L9.9364 14.8L8.0364 12.77C7.6864 12.44 7.1364 12.42 6.7364 12.7C6.3464 12.99 6.2364 13.5 6.4764 13.91L8.7264 17.57C8.9464 17.91 9.3264 18.12 9.7564 18.12C10.1664 18.12 10.5564 17.91 10.7764 17.57C11.1364 17.1 18.0064 8.91004 18.0064 8.91004C18.9064 7.99004 17.8164 7.18004 17.0964 7.88004V7.89004Z" fill="#282730"/>
</svg>
