<svg width="51" height="50" viewBox="0 0 51 50" fill="none" xmlns="http://www.w3.org/2000/svg">
<path d="M25.5 31H25.51M20.5 15H30.5C31.6046 15 32.5 15.8954 32.5 17V33C32.5 34.1046 31.6046 35 30.5 35H20.5C19.3954 35 18.5 34.1046 18.5 33V17C18.5 15.8954 19.3954 15 20.5 15Z" stroke="#F7BB0E" stroke-width="2" stroke-linecap="round" stroke-linejoin="round"/>
<path d="M25.5 48C12.7975 48 2.5 37.7025 2.5 25H0.5C0.5 38.8071 11.6929 50 25.5 50V48ZM48.5 25C48.5 37.7025 38.2025 48 25.5 48V50C39.3071 50 50.5 38.8071 50.5 25H48.5ZM25.5 2C38.2025 2 48.5 12.2975 48.5 25H50.5C50.5 11.1929 39.3071 0 25.5 0V2ZM25.5 0C11.6929 0 0.5 11.1929 0.5 25H2.5C2.5 12.2975 12.7975 2 25.5 2V0Z" fill="#F7BB0E"/>
</svg>
