<svg width="51" height="50" viewBox="0 0 51 50" fill="none" xmlns="http://www.w3.org/2000/svg">
<path d="M34.71 28.89C34.0738 30.3945 33.0788 31.7202 31.8119 32.7513C30.545 33.7824 29.0448 34.4874 27.4424 34.8048C25.8401 35.1221 24.1844 35.0421 22.6201 34.5718C21.0559 34.1014 19.6306 33.2551 18.469 32.1067C17.3074 30.9582 16.4448 29.5428 15.9566 27.9839C15.4685 26.4251 15.3696 24.7705 15.6686 23.1646C15.9676 21.5588 16.6555 20.0506 17.672 18.772C18.6886 17.4934 20.0029 16.4833 21.5 15.83M35.5 25C35.5 23.6868 35.2413 22.3864 34.7388 21.1732C34.2362 19.9599 33.4997 18.8575 32.5711 17.9289C31.6425 17.0003 30.5401 16.2638 29.3268 15.7612C28.1136 15.2587 26.8132 15 25.5 15V25H35.5Z" stroke="#F7BB0E" stroke-width="2" stroke-linecap="round" stroke-linejoin="round"/>
<path d="M25.5 48C12.7975 48 2.5 37.7025 2.5 25H0.5C0.5 38.8071 11.6929 50 25.5 50V48ZM48.5 25C48.5 37.7025 38.2025 48 25.5 48V50C39.3071 50 50.5 38.8071 50.5 25H48.5ZM25.5 2C38.2025 2 48.5 12.2975 48.5 25H50.5C50.5 11.1929 39.3071 0 25.5 0V2ZM25.5 0C11.6929 0 0.5 11.1929 0.5 25H2.5C2.5 12.2975 12.7975 2 25.5 2V0Z" fill="#F7BB0E"/>
</svg>
