<svg width="51" height="50" viewBox="0 0 51 50" fill="none" xmlns="http://www.w3.org/2000/svg">
<g clip-path="url(#clip0_110_872)">
<path d="M30.5 34V32C30.5 30.9391 30.0786 29.9217 29.3284 29.1716C28.5783 28.4214 27.5609 28 26.5 28H18.5C17.4391 28 16.4217 28.4214 15.6716 29.1716C14.9214 29.9217 14.5 30.9391 14.5 32V34M36.5 34V32C36.4993 31.1137 36.2044 30.2528 35.6614 29.5523C35.1184 28.8519 34.3581 28.3516 33.5 28.13M29.5 16.13C30.3604 16.3503 31.123 16.8507 31.6676 17.5523C32.2122 18.2539 32.5078 19.1168 32.5078 20.005C32.5078 20.8932 32.2122 21.7561 31.6676 22.4577C31.123 23.1593 30.3604 23.6597 29.5 23.88M26.5 20C26.5 22.2091 24.7091 24 22.5 24C20.2909 24 18.5 22.2091 18.5 20C18.5 17.7909 20.2909 16 22.5 16C24.7091 16 26.5 17.7909 26.5 20Z" stroke="#F7BB0E" stroke-width="2" stroke-linecap="round" stroke-linejoin="round"/>
</g>
<path d="M25.5 48C12.7975 48 2.5 37.7025 2.5 25H0.5C0.5 38.8071 11.6929 50 25.5 50V48ZM48.5 25C48.5 37.7025 38.2025 48 25.5 48V50C39.3071 50 50.5 38.8071 50.5 25H48.5ZM25.5 2C38.2025 2 48.5 12.2975 48.5 25H50.5C50.5 11.1929 39.3071 0 25.5 0V2ZM25.5 0C11.6929 0 0.5 11.1929 0.5 25H2.5C2.5 12.2975 12.7975 2 25.5 2V0Z" fill="#F7BB0E"/>
<defs>
<clipPath id="clip0_110_872">
<rect width="24" height="24" fill="white" transform="translate(13.5 13)"/>
</clipPath>
</defs>
</svg>
