<svg width="165" height="38" viewBox="0 0 165 38" fill="none" xmlns="http://www.w3.org/2000/svg">
<path d="M23.9032 22.9014L17.03 10.2124C16.9743 10.1011 16.9465 9.98982 16.9465 9.87851L17.03 7.68019C17.03 7.34627 17.3361 7.06799 17.67 7.06799C18.0039 7.06799 18.2822 7.3741 18.2822 7.70802L18.1987 9.73938L22.4006 17.4752L19.924 10.2403C19.8961 10.1846 19.8962 10.1011 19.8962 10.0455V7.42976C19.8962 7.40193 19.8961 7.40193 19.924 7.3741C20.4805 6.76191 21.1484 7.15149 21.1484 7.70802V9.93417L24.0702 18.4492C24.0702 18.477 24.098 18.5048 24.098 18.5605H24.1537L22.6788 10.1011V7.42976C22.6788 7.40193 22.6788 7.40193 22.7067 7.3741C23.2632 6.76191 23.931 7.15149 23.931 7.70802V9.98981L25.3502 18.1431V7.3741C25.8511 6.81756 26.4911 7.15149 26.4911 7.65237V18.2265L27.9103 10.0176V7.45758C27.9103 7.42975 27.9103 7.42975 27.9381 7.40192C28.4946 6.78973 29.1625 7.17931 29.1625 7.73584V10.1289L27.6877 18.5883H27.7433C27.7433 18.5605 27.7433 18.5048 27.7711 18.477L30.6929 10.0176V7.70802C30.6929 7.3741 30.9712 7.06799 31.333 7.06799C31.333 7.06799 31.333 7.06799 31.3608 7.06799C28.1885 2.78267 23.0962 0 17.3639 0C7.76366 0 0 7.79149 0 17.3639C0 18.6996 0.139134 20.0353 0.417402 21.2875C0.417402 21.2875 0.417395 21.3153 0.445222 21.371C0.500875 21.6492 0.584352 21.9553 0.667833 22.2336C0.667833 22.2614 0.695663 22.2614 0.72349 22.2893C0.80697 22.484 0.86262 22.7067 0.946101 22.9014C1.97569 25.4337 3.70096 27.4094 5.98276 28.8285C6.01059 28.8564 6.01059 28.8564 6.03842 28.8842C6.20538 28.9677 7.29062 29.6912 7.29062 29.886V21.9832C7.29062 21.6214 7.45758 21.2597 7.70802 21.037C7.70802 21.0092 7.73584 21.0092 7.76366 20.9814C7.65236 19.924 7.87498 19.117 8.37586 18.5883C8.93239 17.9761 9.65589 17.9761 9.85067 17.9761C10.0733 17.9761 13.2734 17.9483 14.8873 17.9483C15.3047 17.9483 15.6108 17.837 15.8056 17.5865C15.9447 17.4196 15.9726 17.2248 15.9726 17.1691C15.9726 17.1135 15.9726 17.03 15.9726 16.8909V13.7743C16.056 13.7743 16.1674 13.7743 16.1952 13.7743C16.2787 13.8021 16.5569 13.8577 16.863 14.0803C17.2526 14.3864 17.4752 14.8595 17.4752 15.416C17.4752 16.223 17.4474 17.197 17.4474 17.2526V17.2804C17.4196 17.7535 17.1691 18.4492 16.5291 18.9222C16.1395 19.2005 15.6108 19.4231 14.9152 19.4231C13.2455 19.4231 9.90634 19.4509 9.87851 19.4509C9.85068 19.4509 9.85068 19.4509 9.82285 19.4509C9.82285 19.4509 9.62807 19.4509 9.46111 19.6179C9.23849 19.8405 9.18284 20.3414 9.2385 20.9814C9.54459 21.204 9.7672 21.5658 9.7672 21.9832V33.0582C11.6038 33.9487 13.6073 34.5052 15.7221 34.7C15.8334 31.2773 15.9726 26.2407 15.9726 26.2128C16.0004 25.2946 15.8334 24.4597 14.5256 24.4319C14.2195 24.4319 13.496 24.8493 13.0508 25.0998C12.9951 25.1276 12.9395 25.1554 12.8838 25.1832C12.7447 25.2389 12.6612 25.2946 12.6612 25.2667C12.2994 25.3502 11.8542 25.2667 11.4368 24.7102C11.3533 24.5989 11.2977 24.4319 11.2977 24.2928V22.818C11.2977 22.6788 11.3812 22.484 11.4925 22.4006C12.1047 21.844 12.7725 21.9275 13.1621 22.2893C13.496 22.5397 13.9412 22.6788 14.3586 22.651C14.7482 22.6232 15.0265 22.2058 15.3326 21.9553C15.6665 21.6771 16.0561 21.6214 16.4735 21.6214C16.8909 21.6214 17.3083 21.6214 17.7257 21.6492C19.0335 21.7605 20.3136 22.2893 21.371 23.0962C21.9553 23.5136 23.2632 24.7658 22.8458 25.0163C22.5397 25.2111 22.3449 25.0163 22.0945 24.8493C21.037 24.2371 20.0631 23.8476 19.0335 24.3484C19.0057 24.3763 18.95 24.3763 18.9222 24.4041C18.5883 24.7102 18.31 25.2389 18.3378 25.6841C18.3378 26.1015 18.477 31.2495 18.5605 34.7C20.7866 34.5331 22.8736 33.9765 24.7937 33.0582V23.2354H24.3763C24.2371 23.2354 24.0145 23.1241 23.9032 22.9014ZM15.3047 15.9447C15.1378 16.3065 14.8039 16.5291 14.3865 16.5291H3.14442C2.58789 16.5291 2.14267 16.0839 2.14267 15.4995V13.2734C2.14267 12.7168 2.58789 12.2438 3.14442 12.2438H14.3865C14.8873 12.2438 15.2769 12.6055 15.3604 13.0786V15.583C15.3604 15.7221 15.3326 15.8334 15.3047 15.9447Z" fill="#F7BB0F"/>
<path d="M33.3087 10.4351C32.9469 9.57245 32.5017 8.76548 31.973 7.98633V10.2403C31.973 10.2403 31.973 10.2403 31.973 10.2681L29.4686 17.5031L33.3087 10.4351Z" fill="#F7BB0F"/>
<path d="M24.8493 21.9832H27.0477L28.2164 19.8406H23.6806L24.8493 21.9832Z" fill="#F7BB0F"/>
<path d="M34.7557 17.3918C34.7557 15.4996 34.4496 13.6908 33.893 11.9656L27.9659 22.9015C27.8546 23.0963 27.632 23.2354 27.4094 23.2354H26.8807V29.9695C26.9085 29.9417 26.9363 29.9138 26.9642 29.886C27.0476 29.8304 27.1868 29.7469 27.2146 29.7191C27.5207 29.4964 27.8268 29.3017 28.1607 29.1069C30.7208 27.6877 32.613 25.6007 33.7261 22.8737C33.8096 22.6511 33.893 22.4563 33.9765 22.2337V22.2058C34.0878 21.9276 34.1713 21.6215 34.227 21.3432C34.5887 20.0353 34.7557 18.6997 34.7557 17.3918Z" fill="#F7BB0F"/>
<path fill-rule="evenodd" clip-rule="evenodd" d="M47 20.3499C48.4037 20.3499 49.8074 20.3499 51.2112 20.3499C51.4864 20.3499 51.7617 20.3499 52.0369 20.3499C52.0644 20.6252 52.0644 20.8729 52.1195 21.1206C52.2296 22.0289 52.5048 22.8821 53.1929 23.5427C53.6058 23.9556 54.1287 24.2033 54.7067 24.3409C55.4224 24.5061 56.1655 24.4785 56.8811 24.2859C58.0371 23.9556 58.7252 23.1574 59.0005 22.0289C59.1381 21.4784 59.2207 20.9279 59.2207 20.3774C59.2482 18.2856 59.2207 16.1663 59.2207 14.0744C59.2207 14.0194 59.2207 13.9643 59.2207 13.9093C57.4867 13.9093 55.7526 13.9093 54.0186 13.9093C54.0186 12.4505 54.0186 10.9917 54.0186 9.53296C57.4867 9.53296 60.9272 9.53296 64.4227 9.53296C64.4227 9.61553 64.4227 9.69811 64.4227 9.78068C64.4227 13.2762 64.4227 16.7718 64.4227 20.2673C64.4227 21.7261 64.23 23.1298 63.6245 24.451C62.6337 26.5979 60.9822 27.9466 58.7252 28.6071C57.3215 29.02 55.9178 29.075 54.459 28.965C53.303 28.8549 52.202 28.6071 51.1561 28.1117C49.3671 27.2584 48.1835 25.8547 47.5505 23.9831C47.2477 23.0748 47.0826 22.1115 47.0275 21.1481C47.0275 21.0655 47 20.983 47 20.9004C47 20.6802 47 20.5151 47 20.3499Z" fill="white"/>
<path fill-rule="evenodd" clip-rule="evenodd" d="M149.279 37.4974C149.279 31.1393 149.279 21.4784 149.279 15.1203C150.711 15.1203 152.142 15.1203 153.573 15.1203C153.656 15.6158 153.738 16.1112 153.848 16.6341C154.096 16.414 154.344 16.1937 154.591 16.0011C155.665 15.1478 156.931 14.8176 158.28 14.8451C161.472 14.9001 163.757 17.0745 164.335 20.1572C164.665 21.8637 164.528 23.5427 163.84 25.1666C162.821 27.5062 160.674 28.8823 158.087 28.8548C156.683 28.8273 155.417 28.4144 154.344 27.4786C154.316 27.4511 154.289 27.4511 154.234 27.396C154.234 28.5521 154.234 29.6806 154.234 30.809C154.234 31.9375 154.234 36.3689 154.234 37.4974C152.582 37.4974 150.958 37.4974 149.279 37.4974ZM159.573 21.671C159.546 21.5334 159.518 21.2307 159.463 20.9279C159.215 19.8545 158.445 19.1113 157.371 18.9462C156.27 18.7535 155.224 19.1939 154.646 20.0747C154.179 20.8178 154.096 21.616 154.234 22.4417C154.399 23.4051 154.867 24.1757 155.83 24.5335C156.793 24.8914 157.757 24.8088 158.61 24.1482C159.326 23.5702 159.573 22.7445 159.573 21.671Z" fill="#0091E3"/>
<path fill-rule="evenodd" clip-rule="evenodd" d="M86.9649 26.9833C86.8823 27.5063 86.7723 28.0292 86.6897 28.5247C85.2584 28.5247 83.8272 28.5247 82.3959 28.5247C82.3959 22.1666 82.3959 15.8361 82.3959 9.47803C84.0474 9.47803 85.6713 9.47803 87.3227 9.47803C87.3227 11.735 87.3227 13.9644 87.3227 16.2489C87.3778 16.1939 87.4328 16.1939 87.4604 16.1664C88.5889 15.1755 89.91 14.7902 91.3688 14.7902C94.5891 14.8452 96.8736 17.0471 97.4516 20.1023C97.7819 21.8088 97.6443 23.4878 96.9562 25.1117C95.9378 27.4512 93.7909 28.8274 91.2311 28.7999C89.6072 28.7724 88.2035 28.2219 87.075 27.0384C87.02 27.0659 87.02 27.0384 86.9649 26.9833ZM92.6899 21.6987C92.6624 21.5336 92.6349 21.2308 92.5798 20.9555C92.3321 19.8821 91.5614 19.139 90.4605 18.9738C89.332 18.8087 88.3962 19.1114 87.7356 20.1023C87.2677 20.8179 87.1851 21.6161 87.3227 22.4694C87.4879 23.4327 87.9558 24.2034 88.8916 24.5612C89.8549 24.9465 90.8183 24.864 91.644 24.2034C92.4147 23.5979 92.6624 22.7446 92.6899 21.6987Z" fill="white"/>
<path fill-rule="evenodd" clip-rule="evenodd" d="M73.3405 14.79C74.7717 14.79 76.1755 15.0377 77.4416 15.7258C79.2857 16.7167 80.3316 18.2581 80.7169 20.2948C80.9647 21.6986 80.9096 23.0748 80.4417 24.4235C79.8086 26.24 78.5976 27.5337 76.8085 28.2218C74.4414 29.1301 72.0469 29.1301 69.7073 28.1667C67.588 27.286 66.3494 25.6345 65.9365 23.3775C65.6613 21.8637 65.7438 20.3499 66.3218 18.8911C67.12 16.9094 68.6339 15.7259 70.6431 15.1478C71.5239 14.9001 72.4322 14.79 73.3405 14.79ZM75.9553 21.6435C75.9277 21.4509 75.8727 21.0655 75.7626 20.7077C75.4323 19.6618 74.7167 19.0563 73.6432 18.9186C72.5973 18.781 71.6065 19.2489 71.1386 20.1572C70.5605 21.2307 70.5606 22.3591 71.0835 23.4326C71.8267 24.9739 74.0011 25.2767 75.1846 24.0381C75.7351 23.4051 75.9277 22.6344 75.9553 21.6435Z" fill="white"/>
<path fill-rule="evenodd" clip-rule="evenodd" d="M142.646 28.5523C142.563 28.0568 142.481 27.5339 142.371 27.0109C142.288 27.0935 142.233 27.1485 142.178 27.2036C140.829 28.5247 139.178 29.0202 137.334 28.8275C134.664 28.5523 132.6 26.6806 131.967 23.8732C131.499 21.8089 131.664 19.7996 132.737 17.928C133.921 15.8361 135.793 14.8728 138.16 14.8728C139.756 14.8728 141.16 15.4233 142.288 16.5793C142.316 16.6068 142.343 16.6343 142.398 16.6619C142.481 16.1389 142.591 15.6435 142.674 15.148C144.105 15.148 145.536 15.148 146.967 15.148C146.967 19.6345 146.967 24.0934 146.967 28.5798C145.536 28.5523 144.105 28.5523 142.646 28.5523ZM139.343 18.9188C138.077 18.9188 137.086 19.662 136.756 20.9006C136.618 21.4786 136.591 22.0566 136.728 22.6346C136.949 23.708 137.747 24.5062 138.765 24.6989C139.949 24.9191 140.995 24.5062 141.573 23.5704C141.985 22.8823 142.068 22.1391 141.985 21.3685C141.875 19.9097 140.774 18.9188 139.343 18.9188Z" fill="#F7BB0F"/>
<path fill-rule="evenodd" clip-rule="evenodd" d="M120.985 28.5522C119.333 28.5522 117.682 28.5522 116.03 28.5522C116.03 24.0658 116.03 19.6069 116.03 15.1205C117.462 15.1205 118.865 15.1205 120.324 15.1205C120.407 15.6159 120.489 16.1389 120.599 16.6618C120.82 16.4416 121.04 16.2214 121.26 16.0288C122.168 15.2581 123.242 14.9003 124.425 14.8177C125.636 14.7351 126.792 14.9278 127.838 15.6159C128.967 16.3591 129.6 17.46 129.93 18.7261C130.123 19.4142 130.178 20.1298 130.178 20.8455C130.178 23.3502 130.178 25.8548 130.178 28.3595C130.178 28.4146 130.178 28.4696 130.178 28.5522C128.526 28.5522 126.875 28.5522 125.223 28.5522C125.223 28.4696 125.223 28.3871 125.223 28.3045C125.223 25.9649 125.223 23.6254 125.223 21.2859C125.223 20.9831 125.196 20.6803 125.141 20.4051C124.893 19.3316 124.012 18.7536 122.939 18.9463C121.893 19.1115 121.205 19.8821 121.067 20.9831C121.04 21.2033 121.04 21.451 121.012 21.6712C121.012 23.8731 121.012 26.1026 121.012 28.3045C120.985 28.3595 120.985 28.4421 120.985 28.5522Z" fill="#F7BB0F"/>
<path fill-rule="evenodd" clip-rule="evenodd" d="M98.0846 26.2952C98.9654 25.0841 99.8461 23.8455 100.727 22.6345C101.03 22.8271 101.305 23.0473 101.608 23.2125C103.479 24.341 105.516 24.6988 107.663 24.396C108.131 24.3134 108.571 24.1758 108.984 23.8731C109.782 23.2675 109.755 22.1666 108.902 21.6436C108.351 21.2858 107.718 21.1757 107.085 21.0656C106.067 20.928 105.048 20.8179 104.03 20.6252C102.791 20.405 101.608 20.0197 100.562 19.2765C99.4057 18.4508 98.8002 17.2673 98.6626 15.8635C98.4974 14.2672 98.8553 12.8084 99.9012 11.5698C100.672 10.6615 101.635 10.056 102.736 9.64312C104.14 9.12016 105.599 8.95502 107.112 9.01007C109.397 9.09264 111.571 9.6156 113.526 10.7991C113.663 10.8817 113.773 10.9643 113.911 11.0468C113.938 11.0468 113.938 11.0744 113.966 11.1019C113.168 12.3129 112.397 13.4965 111.599 14.7075C111.351 14.5699 111.131 14.4048 110.883 14.2947C109.094 13.3589 107.223 13.0836 105.268 13.4965C104.883 13.5791 104.498 13.7442 104.195 13.9644C103.397 14.5149 103.479 15.5608 104.305 16.0562C104.828 16.359 105.406 16.4691 105.984 16.5516C107.002 16.7168 108.048 16.8269 109.039 17.0196C110.333 17.2673 111.544 17.7352 112.59 18.5609C114.131 19.7445 114.764 21.3408 114.627 23.2125C114.461 25.552 113.14 27.0934 111.103 28.0842C109.645 28.7999 108.048 29.0476 106.424 29.0476C104.498 29.0476 102.626 28.7173 100.837 27.9741C99.9287 27.5888 99.0479 27.1209 98.2773 26.4878C98.2222 26.4603 98.1672 26.4053 98.1396 26.3777C98.1121 26.3502 98.1121 26.3227 98.0846 26.2952Z" fill="#F7BB0F"/>
<path fill-rule="evenodd" clip-rule="evenodd" d="M149.279 37.4974C149.279 31.1393 149.279 21.4784 149.279 15.1203C150.711 15.1203 152.142 15.1203 153.573 15.1203C153.656 15.6158 153.738 16.1112 153.848 16.6341C154.096 16.414 154.344 16.1937 154.591 16.0011C155.665 15.1478 156.931 14.8176 158.28 14.8451C161.472 14.9001 163.757 17.0745 164.335 20.1572C164.665 21.8637 164.528 23.5427 163.84 25.1666C162.821 27.5062 160.674 28.8823 158.087 28.8548C156.683 28.8273 155.417 28.4144 154.344 27.4786C154.316 27.4511 154.289 27.4511 154.234 27.396C154.234 28.5521 154.234 29.6806 154.234 30.809C154.234 31.9375 154.234 36.3689 154.234 37.4974C152.582 37.4974 150.986 37.4974 149.279 37.4974ZM159.573 21.671C159.546 21.5334 159.518 21.2307 159.463 20.9279C159.215 19.8545 158.445 19.1113 157.371 18.9462C156.27 18.7535 155.224 19.1939 154.646 20.0747C154.179 20.8178 154.096 21.616 154.234 22.4417C154.399 23.4051 154.867 24.1757 155.83 24.5335C156.793 24.8914 157.757 24.8088 158.61 24.1482C159.326 23.5702 159.573 22.7445 159.573 21.671Z" fill="#F7BB0F"/>
</svg>
