<svg width="171" height="39" viewBox="0 0 171 39" fill="none" xmlns="http://www.w3.org/2000/svg">
<path d="M60.1858 13.8047V23.8563C60.1788 25.3641 59.4808 26.1668 58.2383 26.1668C57.0795 26.1668 56.3047 25.4618 56.2838 24.3031H53.7081C53.7081 26.9416 55.6346 28.2958 58.1405 28.2958C60.8977 28.2958 62.7475 26.6205 62.7545 23.8563V13.8047H60.1858ZM70.1292 28.3098C73.2703 28.3098 75.2666 26.097 75.2666 22.7814C75.2666 19.4588 73.2703 17.239 70.1292 17.239C66.988 17.239 64.9917 19.4588 64.9917 22.7814C64.9917 26.097 66.988 28.3098 70.1292 28.3098ZM70.1431 26.2855C68.405 26.2855 67.5534 24.7358 67.5534 22.7744C67.5534 20.8129 68.405 19.2424 70.1431 19.2424C71.8533 19.2424 72.7049 20.8129 72.7049 22.7744C72.7049 24.7358 71.8533 26.2855 70.1431 26.2855ZM77.523 28.1003H80.008V26.4111H80.1546C80.5525 27.1929 81.3831 28.2888 83.2259 28.2888C85.7528 28.2888 87.6444 26.2855 87.6444 22.7535C87.6444 19.1796 85.6969 17.239 83.2189 17.239C81.3273 17.239 80.5385 18.3768 80.1546 19.1516H80.0499V13.8047H77.523V28.1003ZM80.001 22.7395C80.001 20.6594 80.8945 19.3122 82.5209 19.3122C84.2031 19.3122 85.0687 20.7431 85.0687 22.7395C85.0687 24.7498 84.1892 26.2157 82.5209 26.2157C80.9084 26.2157 80.001 24.8196 80.001 22.7395ZM88.489 15.9756H92.9075V28.1003H95.4763V15.9756H99.8948V13.8047H88.489V15.9756ZM100.869 28.1003H103.395V21.7972C103.395 20.436 104.422 19.4727 105.811 19.4727C106.236 19.4727 106.767 19.5495 106.983 19.6193V17.2949C106.753 17.253 106.355 17.2251 106.076 17.2251C104.847 17.2251 103.821 17.9231 103.43 19.1656H103.319V17.3786H100.869V28.1003ZM111.536 28.3167C113.218 28.3167 114.224 27.528 114.684 26.6275H114.768V28.1003H117.197V20.9246C117.197 18.0906 114.887 17.239 112.841 17.239C110.587 17.239 108.856 18.2442 108.297 20.1987L110.657 20.5337C110.908 19.8008 111.62 19.1726 112.855 19.1726C114.028 19.1726 114.67 19.7729 114.67 20.8269V20.8688C114.67 21.5947 113.909 21.6296 112.018 21.8321C109.938 22.0554 107.948 22.6767 107.948 25.0918C107.948 27.1999 109.491 28.3167 111.536 28.3167ZM112.192 26.46C111.138 26.46 110.384 25.9783 110.384 25.05C110.384 24.0797 111.229 23.6748 112.36 23.5143C113.023 23.4236 114.349 23.256 114.677 22.9908V24.2542C114.677 25.4478 113.714 26.46 112.192 26.46ZM124.415 28.3098C127.109 28.3098 128.826 26.7113 129.008 24.4357H126.593C126.376 25.5874 125.546 26.2506 124.436 26.2506C122.858 26.2506 121.839 24.9313 121.839 22.7395C121.839 20.5756 122.879 19.2773 124.436 19.2773C125.65 19.2773 126.397 20.0591 126.593 21.0921H129.008C128.833 18.7677 127.018 17.239 124.401 17.239C121.26 17.239 119.277 19.5076 119.277 22.7814C119.277 26.0272 121.211 28.3098 124.415 28.3098ZM131.083 28.1003H133.61V24.4985L134.531 23.5143L137.812 28.1003H140.834L136.437 22.0066L140.59 17.3786H137.637L133.784 21.6855H133.61V13.8047H131.083V28.1003ZM142.274 28.1003H144.801V21.7972C144.801 20.436 145.827 19.4727 147.216 19.4727C147.642 19.4727 148.172 19.5495 148.388 19.6193V17.2949C148.158 17.253 147.76 17.2251 147.481 17.2251C146.253 17.2251 145.226 17.9231 144.836 19.1656H144.724V17.3786H142.274V28.1003ZM150.067 28.1003H152.594V21.7972C152.594 20.436 153.62 19.4727 155.009 19.4727C155.435 19.4727 155.966 19.5495 156.182 19.6193V17.2949C155.952 17.253 155.554 17.2251 155.275 17.2251C154.046 17.2251 153.02 17.9231 152.629 19.1656H152.517V17.3786H150.067V28.1003Z" fill="white"/>
<path fill-rule="evenodd" clip-rule="evenodd" d="M19.0529 4.75965V0.5H25.1956V4.75965C22.9858 4.37543 21.2151 4.38333 19.0529 4.75965ZM25.0574 21.5926L29.1054 15.2268L28.4082 14.5849L22.7677 19.4849C21.7311 19.2667 20.6147 19.5924 19.8591 20.4621C18.7289 21.7634 18.8379 23.7635 20.1033 24.9273C21.3687 26.091 23.3098 25.9787 24.44 24.6759C25.1956 23.8062 25.3844 22.6283 25.0574 21.5926ZM34.8057 5.79856L32.6451 8.02326C33.4682 8.6573 34.2391 9.35776 34.9485 10.123L36.9772 8.03432L34.8057 5.79856ZM3.69632 14.7305H15.9816V17.8928H3.69632V14.7305ZM12.9103 21.0552H0.625V24.2175H12.9103V21.0552ZM5.23198 27.3797H15.9816V30.542H5.23198V27.3797ZM22.1243 38.448C30.6057 38.448 37.4809 31.3691 37.4809 22.6364C37.4809 13.9036 30.6057 6.82474 22.1243 6.82474C17.8398 6.82474 13.9853 8.65098 11.2042 11.5682H16.2412C17.9887 10.5705 19.9866 9.98706 22.1243 9.98706C28.8981 9.98706 34.4096 15.6618 34.4096 22.6364C34.4096 29.6109 28.8981 35.2856 22.1243 35.2856C19.9866 35.2856 17.9887 34.7022 16.2412 33.7045H11.2042C13.9853 36.6217 17.8398 38.448 22.1243 38.448Z" fill="#F7BB0E"/>
</svg>
