<svg width="38" height="39" viewBox="0 0 38 39" fill="none" xmlns="http://www.w3.org/2000/svg">
<path fill-rule="evenodd" clip-rule="evenodd" d="M19.0529 4.75965V0.5H25.1956V4.75965C22.9858 4.37543 21.2151 4.38333 19.0529 4.75965ZM25.0574 21.5926L29.1054 15.2268L28.4082 14.5849L22.7677 19.4849C21.7311 19.2667 20.6147 19.5924 19.8591 20.4621C18.7289 21.7634 18.8379 23.7635 20.1033 24.9273C21.3687 26.091 23.3098 25.9787 24.44 24.6759C25.1956 23.8062 25.3844 22.6283 25.0574 21.5926ZM34.8057 5.79856L32.6451 8.02326C33.4682 8.6573 34.2391 9.35776 34.9485 10.123L36.9771 8.03432L34.8057 5.79856ZM3.69632 14.7305H15.9816V17.8928H3.69632V14.7305ZM12.9103 21.0552H0.625V24.2175H12.9103V21.0552ZM5.23198 27.3797H15.9816V30.542H5.23198V27.3797ZM22.1243 38.448C30.6057 38.448 37.4809 31.3691 37.4809 22.6364C37.4809 13.9036 30.6057 6.82474 22.1243 6.82474C17.8398 6.82474 13.9853 8.65098 11.2042 11.5682H16.2412C17.9887 10.5705 19.9866 9.98706 22.1243 9.98706C28.8981 9.98706 34.4096 15.6618 34.4096 22.6364C34.4096 29.6109 28.8981 35.2856 22.1243 35.2856C19.9866 35.2856 17.9887 34.7022 16.2412 33.7045H11.2042C13.9853 36.6217 17.8398 38.448 22.1243 38.448Z" fill="#F7BB0E"/>
</svg>
