<svg width="35" height="35" viewBox="0 0 35 35" fill="none" xmlns="http://www.w3.org/2000/svg">
<path d="M23.9032 22.9014L17.03 10.2124C16.9743 10.1011 16.9465 9.98982 16.9465 9.87851L17.03 7.68019C17.03 7.34627 17.3361 7.068 17.67 7.068C18.0039 7.068 18.2822 7.3741 18.2822 7.70802L18.1987 9.73938L22.4006 17.4752L19.924 10.2403C19.8961 10.1846 19.8962 10.1011 19.8962 10.0455V7.42976C19.8962 7.40193 19.8961 7.40193 19.924 7.3741C20.4805 6.76191 21.1484 7.15149 21.1484 7.70802V9.93417L24.0702 18.4492C24.0702 18.477 24.098 18.5048 24.098 18.5605H24.1537L22.6788 10.1011V7.42976C22.6788 7.40193 22.6788 7.40193 22.7067 7.3741C23.2632 6.76191 23.931 7.15149 23.931 7.70802V9.98981L25.3502 18.1431V7.3741C25.8511 6.81756 26.4911 7.15149 26.4911 7.65237V18.2265L27.9103 10.0176V7.45758C27.9103 7.42975 27.9103 7.42975 27.9381 7.40192C28.4946 6.78973 29.1625 7.17931 29.1625 7.73584V10.1289L27.6877 18.5883H27.7433C27.7433 18.5605 27.7433 18.5048 27.7711 18.477L30.6929 10.0176V7.70802C30.6929 7.3741 30.9712 7.068 31.333 7.068C31.333 7.068 31.333 7.068 31.3608 7.068C28.1885 2.78267 23.0962 0 17.3639 0C7.76366 0 0 7.79149 0 17.3639C0 18.6996 0.139134 20.0353 0.417402 21.2875C0.417402 21.2875 0.417395 21.3153 0.445222 21.371C0.500875 21.6492 0.584352 21.9553 0.667833 22.2336C0.667833 22.2614 0.695663 22.2614 0.72349 22.2893C0.80697 22.484 0.86262 22.7067 0.946101 22.9014C1.97569 25.4337 3.70096 27.4094 5.98276 28.8286C6.01059 28.8564 6.01059 28.8564 6.03842 28.8842C6.20538 28.9677 7.29062 29.6912 7.29062 29.886V21.9832C7.29062 21.6214 7.45758 21.2597 7.70802 21.037C7.70802 21.0092 7.73584 21.0092 7.76366 20.9814C7.65236 19.924 7.87498 19.117 8.37586 18.5883C8.93239 17.9761 9.65589 17.9761 9.85067 17.9761C10.0733 17.9761 13.2734 17.9483 14.8873 17.9483C15.3047 17.9483 15.6108 17.837 15.8056 17.5865C15.9447 17.4196 15.9726 17.2248 15.9726 17.1691C15.9726 17.1135 15.9726 17.03 15.9726 16.8909V13.7743C16.056 13.7743 16.1674 13.7743 16.1952 13.7743C16.2787 13.8021 16.5569 13.8577 16.863 14.0803C17.2526 14.3864 17.4752 14.8595 17.4752 15.416C17.4752 16.223 17.4474 17.197 17.4474 17.2526V17.2804C17.4196 17.7535 17.1691 18.4492 16.5291 18.9222C16.1395 19.2005 15.6108 19.4231 14.9152 19.4231C13.2455 19.4231 9.90634 19.4509 9.87851 19.4509C9.85068 19.4509 9.85068 19.4509 9.82285 19.4509C9.82285 19.4509 9.62807 19.4509 9.46111 19.6179C9.23849 19.8405 9.18285 20.3414 9.2385 20.9814C9.54459 21.204 9.7672 21.5658 9.7672 21.9832V33.0582C11.6038 33.9487 13.6073 34.5052 15.7221 34.7C15.8334 31.2773 15.9726 26.2407 15.9726 26.2128C16.0004 25.2946 15.8334 24.4597 14.5256 24.4319C14.2195 24.4319 13.496 24.8493 13.0508 25.0998C12.9951 25.1276 12.9395 25.1554 12.8838 25.1832C12.7447 25.2389 12.6612 25.2945 12.6612 25.2667C12.2994 25.3502 11.8542 25.2667 11.4368 24.7102C11.3533 24.5989 11.2977 24.4319 11.2977 24.2928V22.818C11.2977 22.6788 11.3812 22.484 11.4925 22.4006C12.1047 21.844 12.7725 21.9275 13.1621 22.2893C13.496 22.5397 13.9412 22.6788 14.3586 22.651C14.7482 22.6232 15.0265 22.2058 15.3326 21.9553C15.6665 21.6771 16.0561 21.6214 16.4735 21.6214C16.8909 21.6214 17.3083 21.6214 17.7257 21.6492C19.0335 21.7605 20.3136 22.2893 21.371 23.0962C21.9553 23.5136 23.2632 24.7658 22.8458 25.0163C22.5397 25.2111 22.3449 25.0163 22.0945 24.8493C21.037 24.2371 20.0631 23.8476 19.0335 24.3484C19.0057 24.3763 18.95 24.3763 18.9222 24.4041C18.5883 24.7102 18.31 25.2389 18.3378 25.6841C18.3378 26.1015 18.477 31.2495 18.5605 34.7C20.7866 34.5331 22.8736 33.9765 24.7937 33.0582V23.2354H24.3763C24.2371 23.2354 24.0145 23.1241 23.9032 22.9014ZM15.3047 15.9447C15.1378 16.3065 14.8039 16.5291 14.3865 16.5291H3.14442C2.58789 16.5291 2.14267 16.0839 2.14267 15.4995V13.2734C2.14267 12.7168 2.58789 12.2438 3.14442 12.2438H14.3865C14.8873 12.2438 15.2769 12.6055 15.3604 13.0786V15.583C15.3604 15.7221 15.3326 15.8334 15.3047 15.9447Z" fill="#F7BB0F"/>
<path d="M33.3087 10.4351C32.9469 9.57245 32.5017 8.76548 31.973 7.98633V10.2403C31.973 10.2403 31.973 10.2403 31.973 10.2681L29.4686 17.5031L33.3087 10.4351Z" fill="#F7BB0F"/>
<path d="M24.8493 21.9832H27.0477L28.2164 19.8406H23.6806L24.8493 21.9832Z" fill="#F7BB0F"/>
<path d="M34.7557 17.3918C34.7557 15.4996 34.4496 13.6908 33.893 11.9656L27.9659 22.9015C27.8546 23.0963 27.632 23.2354 27.4094 23.2354H26.8807V29.9695C26.9085 29.9417 26.9363 29.9138 26.9642 29.886C27.0476 29.8304 27.1868 29.7469 27.2146 29.7191C27.5207 29.4965 27.8268 29.3017 28.1607 29.1069C30.7208 27.6877 32.613 25.6007 33.7261 22.8737C33.8096 22.6511 33.893 22.4563 33.9765 22.2337V22.2058C34.0878 21.9276 34.1713 21.6215 34.227 21.3432C34.5887 20.0353 34.7557 18.6997 34.7557 17.3918Z" fill="#F7BB0F"/>
</svg>
